<?xml version="1.0" encoding="utf-8"?>
<!-- Generator: Adobe Illustrator 18.1.0, SVG Export Plug-In . SVG Version: 6.00 Build 0)  -->
<svg version="1.1" id="Capa_1" xmlns="http://www.w3.org/2000/svg" xmlns:xlink="http://www.w3.org/1999/xlink" x="0px" y="0px"
	 viewBox="-210 212 90 90" enable-background="new -210 212 90 90" xml:space="preserve">
<g>
	<path id="WhatsApp" fill="#FFFFFF" d="M-120,255.8c0,24.2-19.8,43.8-44.2,43.8c-7.7,0-15-2-21.4-5.5L-210,302l8-23.5
		c-4-6.6-6.3-14.4-6.3-22.6c0-24.2,19.8-43.8,44.2-43.8C-139.8,212-120,231.6-120,255.8z M-164.2,219c-20.5,0-37.1,16.5-37.1,36.9
		c0,8.1,2.6,15.5,7.1,21.6l-4.6,13.7l14.3-4.5c5.9,3.9,12.9,6.1,20.4,6.1c20.5,0,37.1-16.5,37.1-36.9S-143.7,219-164.2,219z
		 M-141.9,265.9c-0.3-0.4-1-0.7-2.1-1.3c-1.1-0.5-6.4-3.1-7.4-3.5c-1-0.4-1.7-0.5-2.4,0.5c-0.7,1.1-2.8,3.5-3.4,4.2
		c-0.6,0.7-1.3,0.8-2.3,0.3c-1.1-0.5-4.6-1.7-8.7-5.3c-3.2-2.8-5.4-6.4-6-7.4c-0.6-1.1-0.1-1.7,0.5-2.2c0.5-0.5,1.1-1.3,1.6-1.9
		c0.5-0.6,0.7-1.1,1.1-1.8c0.4-0.7,0.2-1.3-0.1-1.9c-0.3-0.5-2.4-5.8-3.3-8c-0.9-2.2-1.8-1.8-2.4-1.8c-0.6,0-1.4-0.1-2.1-0.1
		s-1.9,0.3-2.9,1.3c-1,1.1-3.8,3.7-3.8,9c0,5.3,3.9,10.4,4.4,11.1c0.5,0.7,7.5,11.9,18.5,16.2c11,4.3,11,2.9,13,2.7
		c2-0.2,6.4-2.6,7.3-5.1C-141.6,268.5-141.6,266.4-141.9,265.9z"/>
</g>
</svg>
